<svg width="30" height="30" viewBox="0 0 30 30" fill="none" xmlns="http://www.w3.org/2000/svg">
<path d="M15 30C23.2843 30 30 23.2843 30 15C30 6.71573 23.2843 0 15 0C6.71573 0 0 6.71573 0 15C0 23.2843 6.71573 30 15 30Z" fill="#252733"/>
<path d="M21 12H9C8.44772 12 8 12.4477 8 13C8 13.5523 8.44772 14 9 14H21C21.5523 14 22 13.5523 22 13C22 12.4477 21.5523 12 21 12Z" fill="white"/>
<path d="M21 16H9C8.44772 16 8 16.4477 8 17C8 17.5523 8.44772 18 9 18H21C21.5523 18 22 17.5523 22 17C22 16.4477 21.5523 16 21 16Z" fill="white"/>
</svg>
