<svg width="15" height="14" viewBox="0 0 15 14" fill="none" xmlns="http://www.w3.org/2000/svg">
<path d="M13.3333 14L8.9 12.8037C8.43333 12.9007 7.93333 12.933 7.33333 12.933C3.1 12.933 0 10.2171 0 6.46651C0 4.72055 0.633333 3.20092 1.86667 2.00462C3.23333 0.711316 5.2 0 7.33333 0C11.5667 0 14.6667 2.71594 14.6667 6.46651C14.6667 7.85681 14.2 9.21478 13.3333 10.2818V14ZM8.9 12.157L12.6667 13.1594V10.0878L12.7333 9.99076C13.5667 8.98845 14 7.75982 14 6.46651C14 3.10393 11.2 0.646651 7.33333 0.646651C5.33333 0.646651 3.56667 1.2933 2.33333 2.45727C1.23333 3.52425 0.666667 4.91455 0.666667 6.46651C0.666667 9.8291 3.46667 12.2864 7.33333 12.2864C7.93333 12.2864 8.4 12.254 8.83333 12.157H8.9Z" fill="#E16848"/>
</svg>
