<svg width="16" height="14" viewBox="0 0 16 14" fill="none" xmlns="http://www.w3.org/2000/svg">
<path d="M14.0169 14L9.58359 12.8037C9.11693 12.9007 8.61693 12.933 8.01693 12.933C3.78359 12.933 0.683594 10.2171 0.683594 6.46651C0.683594 4.72055 1.31693 3.20092 2.55026 2.00462C3.91693 0.711316 5.88359 0 8.01693 0C12.2503 0 15.3503 2.71594 15.3503 6.46651C15.3503 7.85681 14.8836 9.21478 14.0169 10.2818V14ZM9.58359 12.157L13.3503 13.1594V10.0878L13.4169 9.99076C14.2503 8.98845 14.6836 7.75982 14.6836 6.46651C14.6836 3.10393 11.8836 0.646651 8.01693 0.646651C6.01693 0.646651 4.25026 1.2933 3.01693 2.45727C1.91693 3.52425 1.35026 4.91455 1.35026 6.46651C1.35026 9.8291 4.15026 12.2864 8.01693 12.2864C8.61693 12.2864 9.08359 12.254 9.51693 12.157H9.58359Z" fill="white"/>
</svg>
