<svg width="25" height="25" viewBox="0 0 25 25" fill="none" xmlns="http://www.w3.org/2000/svg">
<circle cx="12.5" cy="12.5" r="12.5" fill="white"/>
<path d="M6.25125 12.5011C6.25198 15.5757 8.48775 18.1936 11.5244 18.6755V14.3073H9.93875V12.5011H11.5263V11.1261C11.4553 10.4746 11.6778 9.82521 12.1335 9.35418C12.5892 8.88314 13.2308 8.63923 13.8844 8.68859C14.3535 8.69617 14.8214 8.73795 15.2844 8.81359V10.3505H14.4944C14.2224 10.3148 13.949 10.4047 13.7511 10.5946C13.5532 10.7846 13.4524 11.0541 13.4769 11.3273V12.5011H15.2088L14.9319 14.308H13.4769V18.6755C16.7609 18.1565 19.0638 15.1572 18.7172 11.8505C18.3706 8.54383 15.4958 6.0873 12.1755 6.26058C8.85523 6.43386 6.25178 9.17629 6.25125 12.5011Z" fill="black"/>
</svg>
