<svg width="25" height="25" viewBox="0 0 25 25" fill="none" xmlns="http://www.w3.org/2000/svg">
<circle cx="12.5" cy="12.5" r="12.5" fill="#F8F9FA"/>
<path d="M6.25098 12.5011C6.2517 15.5757 8.48748 18.1936 11.5241 18.6755V14.3073H9.93848V12.5011H11.526V11.1261C11.455 10.4746 11.6776 9.82521 12.1333 9.35418C12.589 8.88314 13.2306 8.63923 13.8841 8.68859C14.3532 8.69617 14.8211 8.73795 15.2841 8.81359V10.3505H14.4941C14.2221 10.3148 13.9487 10.4047 13.7508 10.5946C13.553 10.7846 13.4521 11.0541 13.4766 11.3273V12.5011H15.2085L14.9316 14.308H13.4766V18.6755C16.7607 18.1565 19.0635 15.1572 18.7169 11.8505C18.3703 8.54383 15.4955 6.0873 12.1752 6.26058C8.85495 6.43386 6.2515 9.17629 6.25098 12.5011Z" fill="black"/>
</svg>
