<svg width="25" height="25" viewBox="0 0 25 25" fill="none" xmlns="http://www.w3.org/2000/svg">
<circle cx="12.5" cy="12.5" r="12.5" fill="white"/>
<path d="M6.25125 12.5012C6.25198 15.5758 8.48775 18.1937 11.5244 18.6756V14.3075H9.93875V12.5012H11.5263V11.1262C11.4553 10.4747 11.6778 9.82534 12.1335 9.3543C12.5892 8.88326 13.2308 8.63935 13.8844 8.68872C14.3535 8.69629 14.8214 8.73807 15.2844 8.81372V10.3506H14.4944C14.2224 10.315 13.949 10.4048 13.7511 10.5948C13.5532 10.7847 13.4524 11.0543 13.4769 11.3275V12.5012H15.2088L14.9319 14.3081H13.4769V18.6756C16.7609 18.1566 19.0638 15.1573 18.7172 11.8506C18.3706 8.54395 15.4958 6.08742 12.1755 6.2607C8.85523 6.43398 6.25178 9.17641 6.25125 12.5012Z" fill="#E16848"/>
</svg>
