<svg width="25" height="25" viewBox="0 0 25 25" fill="none" xmlns="http://www.w3.org/2000/svg">
<circle cx="12.5" cy="12.5" r="12.5" fill="#F8F9FA"/>
<path fill-rule="evenodd" clip-rule="evenodd" d="M12.5005 7C11.0068 7 10.8193 7.00653 10.2327 7.03323C9.64713 7.06004 9.24746 7.15274 8.89775 7.28875C8.53601 7.42923 8.22915 7.61715 7.92344 7.92297C7.6175 8.22868 7.42958 8.53553 7.28864 8.89716C7.15228 9.24698 7.05947 9.64676 7.03311 10.2321C7.00688 10.8187 7 11.0063 7 12.5C7 13.9937 7.00665 14.1806 7.03323 14.7673C7.06016 15.3528 7.15286 15.7524 7.28875 16.1022C7.42935 16.4639 7.61727 16.7708 7.92309 17.0765C8.22869 17.3824 8.53555 17.5708 8.89706 17.7113C9.247 17.8473 9.64679 17.94 10.2322 17.9668C10.8189 17.9935 11.0062 18 12.4998 18C13.9937 18 14.1806 17.9935 14.7672 17.9668C15.3528 17.94 15.7529 17.8473 16.1028 17.7113C16.4645 17.5708 16.7709 17.3824 17.0764 17.0765C17.3824 16.7708 17.5703 16.4639 17.7112 16.1023C17.8465 15.7524 17.9393 15.3527 17.9668 14.7674C17.9931 14.1807 18 13.9937 18 12.5C18 11.0063 17.9931 10.8188 17.9668 10.2322C17.9393 9.64665 17.8465 9.24698 17.7112 8.89727C17.5703 8.53553 17.3824 8.22868 17.0764 7.92297C16.7705 7.61703 16.4646 7.42911 16.1025 7.28875C15.7519 7.15274 15.352 7.06004 14.7664 7.03323C14.1798 7.00653 13.993 7 12.4988 7H12.5005ZM12.0071 7.99113C12.1535 7.9909 12.3169 7.99113 12.5005 7.99113C13.969 7.99113 14.1431 7.9964 14.723 8.02276C15.2592 8.04728 15.5503 8.13688 15.7441 8.21216C16.0008 8.31185 16.1838 8.43102 16.3762 8.62352C16.5687 8.81602 16.6879 8.99935 16.7878 9.25602C16.8631 9.44966 16.9528 9.7407 16.9772 10.277C17.0035 10.8567 17.0093 11.0309 17.0093 12.4987C17.0093 13.9665 17.0035 14.1407 16.9772 14.7205C16.9527 15.2567 16.8631 15.5478 16.7878 15.7414C16.6881 15.9981 16.5687 16.1809 16.3762 16.3732C16.1837 16.5657 16.0009 16.6849 15.7441 16.7846C15.5505 16.8602 15.2592 16.9496 14.723 16.9741C14.1432 17.0005 13.969 17.0062 12.5005 17.0062C11.0319 17.0062 10.8578 17.0005 10.278 16.9741C9.74175 16.9494 9.45071 16.8598 9.25672 16.7845C9.00005 16.6848 8.81671 16.5656 8.62421 16.3731C8.43171 16.1806 8.31254 15.9978 8.21262 15.741C8.13734 15.5473 8.04762 15.2563 8.02322 14.72C7.99686 14.1402 7.99159 13.9661 7.99159 12.4973C7.99159 11.0286 7.99686 10.8554 8.02322 10.2756C8.04774 9.73933 8.13734 9.44829 8.21262 9.25441C8.31231 8.99775 8.43171 8.81441 8.62421 8.62191C8.81671 8.42941 9.00005 8.31025 9.25672 8.21033C9.4506 8.1347 9.74175 8.04533 10.278 8.02069C10.7854 7.99778 10.982 7.9909 12.0071 7.98976V7.99113ZM15.4364 8.90436C15.072 8.90436 14.7764 9.19964 14.7764 9.56413C14.7764 9.92851 15.072 10.2241 15.4364 10.2241C15.8008 10.2241 16.0964 9.92851 16.0964 9.56413C16.0964 9.19976 15.8008 8.90436 15.4364 8.90436ZM12.5005 9.67551C10.9407 9.67551 9.67602 10.9402 9.67602 12.5C9.67602 14.0598 10.9407 15.3239 12.5005 15.3239C14.0604 15.3239 15.3246 14.0598 15.3246 12.5C15.3246 10.9402 14.0604 9.67551 12.5005 9.67551ZM12.5005 10.6667C13.513 10.6667 14.3339 11.4874 14.3339 12.5C14.3339 13.5124 13.513 14.3333 12.5005 14.3333C11.4879 14.3333 10.6672 13.5124 10.6672 12.5C10.6672 11.4874 11.4879 10.6667 12.5005 10.6667Z" fill="black"/>
</svg>
