<svg width="5" height="8" viewBox="0 0 5 8" fill="none" xmlns="http://www.w3.org/2000/svg">
<path fill-rule="evenodd" clip-rule="evenodd" d="M1.81185 3.93435L4.46685 1.27935C4.75764 0.986821 4.75764 0.514377 4.46685 0.221849C4.32603 0.0798643 4.13433 0 3.93435 0C3.73437 0 3.54268 0.0798643 3.40185 0.221849L0.221849 3.40185C0.0798643 3.54267 0 3.73437 0 3.93435C0 4.13433 0.0798643 4.32602 0.221849 4.46685L3.40185 7.68435C3.54339 7.82474 3.735 7.903 3.93435 7.90185C4.1337 7.903 4.32531 7.82474 4.46685 7.68435C4.75764 7.39182 4.75764 6.91938 4.46685 6.62685L1.81185 3.93435Z" fill="#252733"/>
</svg>
