<svg width="18" height="14" viewBox="0 0 18 14" fill="none" xmlns="http://www.w3.org/2000/svg">
<path d="M12.2593 0.000327282C10.8319 -0.00721135 9.47499 0.612308 8.55553 1.69132C7.64184 0.604933 6.28111 -0.0163478 4.85173 0.000327282C2.17218 0.000327282 0 2.14699 0 4.79506C0 9.33299 8.01405 13.7638 8.33896 13.9351C8.47005 14.0216 8.64102 14.0216 8.77215 13.9351C9.09706 13.7638 17.1111 9.39719 17.1111 4.79506C17.1111 2.14699 14.9389 0.000327282 12.2593 0.000327282ZM8.55553 13.0789C7.29928 12.3511 0.866386 8.47678 0.866386 4.79506C0.866386 2.61988 2.65069 0.856494 4.85177 0.856494C6.19965 0.839 7.46105 1.51088 8.18735 2.63311C8.33481 2.83407 8.61926 2.87885 8.82261 2.73308C8.86145 2.70522 8.89561 2.6715 8.92376 2.63311C10.1283 0.812574 12.5982 0.301749 14.4404 1.49216C15.5681 2.2209 16.2469 3.46343 16.2447 4.79502C16.2447 8.51955 9.81179 12.3725 8.55553 13.0789Z" fill="white"/>
</svg>
