<svg version="1.2" xmlns="http://www.w3.org/2000/svg" viewBox="0 0 23 28" width="23" height="28">
	<title>Право на город_-11 8-svg</title>
	<defs>
		<clipPath clipPathUnits="userSpaceOnUse" id="cp1">
			<path d="m0 0h153.94v28h-153.94z" />
		</clipPath>
	</defs>
	<style>
		.s0 { fill: #000000 } 
		.s1 { fill: #e16848 } 
		.s2 { fill: #1a5f80 } 
	</style>
	<g id="Clip-Path" clip-path="url(#cp1)">
		<g id="Layer">
			<path id="Layer" class="s0" d="m39.9 10.4h-1.6v-10.4h8.8v10.4h-1.6v-8.9h-5.6z" />
			<path id="Layer" fill-rule="evenodd" class="s0" d="m53.7 2.7q1.5 0 2.4 1.1q1 1.1 1 2.8q0 1.7-1 2.8q-0.9 1.1-2.4 1.1q-1.1 0-1.9-0.6q-0.8-0.6-1.1-1.7v5.1h-1.6v-10.5h1.6v2.2q0.3-1.1 1.1-1.7q0.8-0.6 1.9-0.6zm-0.5 6.4q1 0 1.6-0.7q0.7-0.7 0.7-1.8q0-1.1-0.7-1.8q-0.6-0.7-1.6-0.7q-1.1 0-1.8 0.7q-0.7 0.7-0.7 1.8q0 1.1 0.7 1.8q0.7 0.7 1.8 0.7z" />
			<path id="Layer" fill-rule="evenodd" class="s0" d="m61.9 2.7q1.4 0 2.2 0.7q0.9 0.7 0.9 2v5h-1.6v-2q-0.7 2.1-2.8 2.1q-0.9 0-1.6-0.6q-0.6-0.5-0.6-1.5q0-1.1 0.7-1.7q0.8-0.5 2-0.6l1.5-0.2q0.8-0.1 0.8-0.7q0-0.6-0.4-0.9q-0.4-0.3-1.1-0.3q-0.7 0-1.2 0.3q-0.4 0.4-0.6 1.1l-1.5-0.4q0.2-1.1 1.1-1.7q0.9-0.6 2.2-0.6zm-0.8 6.6q1 0 1.7-0.7q0.6-0.6 0.6-1.5v-0.4q-0.1 0.3-0.8 0.4l-1.5 0.2q-0.5 0-0.9 0.3q-0.3 0.2-0.3 0.7q0 0.4 0.3 0.7q0.4 0.3 0.9 0.3z" />
			<path id="Layer" fill-rule="evenodd" class="s0" d="m71.6 6.6q1 0.1 1.5 0.6q0.5 0.5 0.5 1.2q0 0.9-0.7 1.4q-0.7 0.6-1.8 0.6h-4.2v-7.6h3.9q1.1 0 1.8 0.6q0.7 0.5 0.7 1.4q0 0.6-0.5 1.1q-0.4 0.5-1.2 0.7zm-0.9-2.5h-2.3v1.9h2.3q0.4 0 0.7-0.3q0.3-0.3 0.3-0.7q0-0.4-0.3-0.6q-0.3-0.3-0.7-0.3zm-2.3 5h2.6q0.5 0 0.8-0.3q0.3-0.2 0.3-0.7q0-0.3-0.3-0.6q-0.3-0.3-0.8-0.3h-2.6z" />
			<path id="Layer" fill-rule="evenodd" class="s0" d="m76 9.4q-1.2-1.1-1.2-2.8q0-1.7 1.2-2.8q1.2-1.1 2.9-1.1q1.7 0 2.8 1.1q1.2 1.1 1.2 2.8q0 1.7-1.2 2.8q-1.1 1.1-2.8 1.1q-1.7 0-2.9-1.1zm1.1-4.6q-0.7 0.7-0.7 1.8q0 1.1 0.7 1.8q0.7 0.7 1.8 0.7q1 0 1.7-0.7q0.7-0.7 0.7-1.8q0-1.1-0.7-1.8q-0.7-0.7-1.7-0.7q-1.1 0-1.8 0.7z" />
			<path id="Layer" class="s0" d="m90.8 10.4h-1.6v-7.6h1.6v3.1h4.1v-3.1h1.5v7.6h-1.5v-3.1h-4.1z" />
			<path id="Layer" fill-rule="evenodd" class="s0" d="m101.5 2.7q1.4 0 2.3 0.7q0.8 0.7 0.8 2v5h-1.5v-2q-0.7 2.1-2.8 2.1q-1 0-1.7-0.6q-0.6-0.5-0.6-1.5q0-1.1 0.8-1.7q0.7-0.5 2-0.6l1.4-0.2q0.9-0.1 0.9-0.7q0-0.6-0.5-0.9q-0.4-0.3-1.1-0.3q-0.7 0-1.1 0.3q-0.5 0.4-0.7 1.1l-1.5-0.4q0.2-1.1 1.1-1.7q0.9-0.6 2.2-0.6zm-0.7 6.6q0.9 0 1.6-0.7q0.7-0.6 0.7-1.5v-0.4q-0.2 0.3-0.9 0.4l-1.4 0.2q-0.6 0-0.9 0.3q-0.4 0.2-0.4 0.7q0 0.4 0.4 0.7q0.3 0.3 0.9 0.3z" />
			<path id="Layer" class="s0" d="m112.7 10.4h-1.5v-7.6h5.5v1.4h-4z" />
			<path id="Layer" fill-rule="evenodd" class="s0" d="m118.5 9.4q-1.2-1.1-1.2-2.8q0-1.7 1.2-2.8q1.1-1.1 2.9-1.1q1.7 0 2.8 1.1q1.2 1.1 1.2 2.8q0 1.7-1.2 2.8q-1.1 1.1-2.8 1.1q-1.8 0-2.9-1.1zm1.1-4.6q-0.7 0.7-0.7 1.8q0 1.1 0.7 1.8q0.7 0.7 1.8 0.7q1 0 1.7-0.7q0.7-0.7 0.7-1.8q0-1.1-0.7-1.8q-0.7-0.7-1.7-0.7q-1.1 0-1.8 0.7z" />
			<path id="Layer" fill-rule="evenodd" class="s0" d="m131.6 2.7q1.5 0 2.5 1.1q1 1.1 1 2.8q0 1.7-1 2.8q-1 1.1-2.5 1.1q-1 0-1.8-0.6q-0.8-0.6-1.2-1.7v5.1h-1.5v-10.5h1.5v2.2q0.4-1.1 1.2-1.7q0.8-0.6 1.8-0.6zm-0.5 6.4q1 0 1.7-0.7q0.6-0.7 0.6-1.8q0-1.1-0.6-1.8q-0.7-0.7-1.7-0.7q-1.1 0-1.8 0.7q-0.7 0.7-0.7 1.8q0 1.1 0.7 1.8q0.7 0.7 1.8 0.7z" />
			<path id="Layer" fill-rule="evenodd" class="s0" d="m137.5 9.4q-1.1-1.1-1.1-2.8q0-1.7 1.1-2.8q1.2-1.1 2.9-1.1q1.7 0 2.8 1.1q1.2 1.1 1.2 2.8q0 1.7-1.2 2.8q-1.1 1.1-2.8 1.1q-1.7 0-2.9-1.1zm1.2-4.6q-0.7 0.7-0.7 1.8q0 1.1 0.7 1.8q0.7 0.7 1.7 0.7q1 0 1.7-0.7q0.7-0.7 0.7-1.8q0-1.1-0.7-1.8q-0.7-0.7-1.7-0.7q-1 0-1.7 0.7z" />
			<path id="Layer" fill-rule="evenodd" class="s0" d="m152.9 2.8v6.2h1v3.5h-1.4v-2.1h-6v2.1h-1.5v-3.5h0.9q0.5-0.6 0.7-1.3q0.1-0.7 0.1-2.2v-2.7zm-5.4 6.2h3.9v-4.8h-3.1v1.3q0 1.5-0.2 2.2q-0.2 0.8-0.6 1.3z" />
			<path id="Layer" fill-rule="evenodd" class="s0" d="m39.5 25.8h-1.2v-7.5h3q1.1 0 1.8 0.7q0.7 0.7 0.7 1.7q0 1-0.7 1.7q-0.7 0.6-1.8 0.6h-1.8zm0-6.4v2.6h1.8q0.6 0 0.9-0.4q0.4-0.3 0.4-0.9q0-0.5-0.4-0.9q-0.3-0.4-0.9-0.4z" />
			<path id="Layer" class="s0" d="m45.9 20.3v1.5q0.2-1 0.8-1.3q0.6-0.4 1.3-0.2v1.1q-0.9-0.3-1.5 0.1q-0.6 0.4-0.6 1.2v3.1h-1.1v-5.5z" />
			<path id="Layer" fill-rule="evenodd" class="s0" d="m50.9 20.2q1 0 1.6 0.5q0.6 0.6 0.6 1.5v3.6h-1.1v-1.5q-0.5 1.6-2 1.6q-0.7 0-1.2-0.4q-0.4-0.5-0.4-1.1q0-0.8 0.5-1.2q0.6-0.4 1.5-0.5l1-0.1q0.6-0.1 0.6-0.6q0-0.4-0.3-0.6q-0.3-0.2-0.8-0.2q-0.5 0-0.8 0.2q-0.4 0.3-0.5 0.8l-1.1-0.3q0.2-0.8 0.8-1.2q0.7-0.5 1.6-0.5zm-0.5 4.8q0.7 0 1.1-0.5q0.5-0.5 0.5-1.1v-0.3q-0.1 0.2-0.6 0.3l-1 0.1q-0.4 0.1-0.7 0.3q-0.2 0.1-0.2 0.5q0 0.3 0.2 0.5q0.3 0.2 0.7 0.2z" />
			<path id="Layer" class="s0" d="m56.6 25.4l1.7-5.1h1.1l-1.9 5.5h-1.9l-1.9-5.5h1.2z" />
			<path id="Layer" fill-rule="evenodd" class="s0" d="m60.5 25.1q-0.9-0.8-0.9-2q0-1.2 0.9-2.1q0.8-0.8 2-0.8q1.2 0 2.1 0.8q0.8 0.9 0.8 2.1q0 1.2-0.8 2q-0.9 0.8-2.1 0.8q-1.2 0-2-0.8zm0.8-3.3q-0.5 0.5-0.5 1.3q0 0.7 0.5 1.2q0.5 0.5 1.2 0.5q0.8 0 1.3-0.5q0.5-0.5 0.5-1.2q0-0.8-0.5-1.3q-0.5-0.5-1.3-0.5q-0.7 0-1.2 0.5z" />
			<path id="Layer" class="s0" d="m73 20.2q0.9 0 1.5 0.7q0.6 0.6 0.6 1.6v3.3h-1.1v-3.1q0-0.6-0.4-1q-0.4-0.5-1-0.5q-0.7 0-1.1 0.5q-0.4 0.4-0.4 1v3.1h-1.1v-5.5h1.1v1.4q0.2-0.7 0.7-1.1q0.5-0.4 1.2-0.4z" />
			<path id="Layer" fill-rule="evenodd" class="s0" d="m78.7 20.2q1 0 1.6 0.5q0.6 0.6 0.6 1.5v3.6h-1.1v-1.5q-0.5 1.6-2 1.6q-0.7 0-1.2-0.4q-0.4-0.5-0.4-1.1q0-0.8 0.5-1.2q0.6-0.4 1.5-0.5l1-0.1q0.6-0.1 0.6-0.6q0-0.4-0.3-0.6q-0.3-0.2-0.8-0.2q-0.5 0-0.8 0.2q-0.4 0.3-0.5 0.8l-1.1-0.3q0.2-0.8 0.8-1.2q0.7-0.5 1.6-0.5zm-0.5 4.8q0.6 0 1.1-0.5q0.5-0.5 0.5-1.1v-0.3q-0.1 0.2-0.6 0.3l-1 0.1q-0.5 0.1-0.7 0.3q-0.2 0.1-0.2 0.5q0 0.3 0.2 0.5q0.2 0.2 0.7 0.2z" />
			<path id="Layer" fill-rule="evenodd" class="s0" d="m90 21.9v-1.6h1.1v4.9q0 1.2-0.8 2q-0.8 0.8-2 0.8q-0.9 0-1.6-0.4q-0.7-0.4-1-1.1l1-0.5q0.2 0.4 0.6 0.7q0.4 0.3 1 0.3q0.7 0 1.2-0.5q0.5-0.6 0.5-1.3v-1.1q-0.2 0.8-0.8 1.2q-0.6 0.5-1.3 0.5q-1.1 0-1.8-0.8q-0.7-0.8-0.7-2q0-1.2 0.7-2q0.7-0.8 1.8-0.8q0.7 0 1.3 0.5q0.6 0.4 0.8 1.2zm-1.7 2.8q0.7 0 1.2-0.5q0.5-0.5 0.5-1.2q0-0.8-0.5-1.2q-0.5-0.5-1.2-0.5q-0.8 0-1.3 0.5q-0.4 0.5-0.4 1.2q0 0.7 0.4 1.2q0.5 0.5 1.3 0.5z" />
			<path id="Layer" fill-rule="evenodd" class="s0" d="m93.2 25.1q-0.9-0.8-0.9-2q0-1.2 0.9-2.1q0.8-0.8 2-0.8q1.2 0 2.1 0.8q0.8 0.9 0.8 2.1q0 1.2-0.8 2q-0.9 0.8-2.1 0.8q-1.2 0-2-0.8zm0.8-3.3q-0.5 0.5-0.5 1.3q0 0.7 0.5 1.2q0.5 0.5 1.2 0.5q0.8 0 1.3-0.5q0.5-0.5 0.5-1.2q0-0.8-0.5-1.3q-0.5-0.5-1.3-0.5q-0.7 0-1.2 0.5z" />
			<path id="Layer" class="s0" d="m100.4 20.3v1.5q0.3-1 0.8-1.3q0.6-0.4 1.3-0.2v1.1q-0.8-0.3-1.5 0.1q-0.6 0.4-0.6 1.2v3.1h-1.1v-5.5z" />
			<path id="Layer" fill-rule="evenodd" class="s0" d="m103.7 25.1q-0.8-0.8-0.8-2q0-1.2 0.8-2.1q0.8-0.8 2-0.8q1.3 0 2.1 0.8q0.8 0.9 0.8 2.1q0 1.2-0.8 2q-0.8 0.8-2.1 0.8q-1.2 0-2-0.8zm0.8-3.3q-0.5 0.5-0.5 1.3q0 0.7 0.5 1.2q0.5 0.5 1.2 0.5q0.8 0 1.3-0.5q0.5-0.5 0.5-1.2q0-0.8-0.5-1.3q-0.5-0.5-1.3-0.5q-0.7 0-1.2 0.5z" />
			<path id="Layer" fill-rule="evenodd" class="s0" d="m114.2 21.9v-4h1.1v7.9h-1.1v-1.6q-0.3 0.8-0.9 1.2q-0.5 0.5-1.3 0.5q-1 0-1.7-0.8q-0.7-0.8-0.7-2q0-1.2 0.7-2.1q0.7-0.8 1.7-0.8q0.8 0 1.3 0.5q0.6 0.4 0.9 1.2zm-1.8 2.9q0.8 0 1.3-0.5q0.5-0.5 0.5-1.2q0-0.8-0.5-1.3q-0.5-0.5-1.3-0.5q-0.7 0-1.2 0.5q-0.5 0.5-0.5 1.3q0 0.7 0.5 1.2q0.5 0.5 1.2 0.5z" />
			<path id="Layer" class="s1" d="m17.8 5h-12.9v20.8h-4.9v-20.8v-4.9h12.8z" />
			<path id="Layer" class="s2" d="m22.7 9.9v15.9h-4.9v-20.8z" />
		</g>
	</g>
</svg>