<svg width="220" height="40" viewBox="0 0 220 40" fill="none" xmlns="http://www.w3.org/2000/svg">
<g clip-path="url(#clip0_214_544)">
<path d="M57.0542 14.8388H54.7021V0H67.357V14.8388H65.0245V2.09807H57.0542V14.8388Z" fill="black"/>
<path d="M76.7064 3.7937C78.1051 3.7937 79.2694 4.33287 80.2031 5.41511C81.1369 6.49735 81.6018 7.83746 81.6018 9.43152C81.6018 11.0295 81.1369 12.3657 80.2031 13.4362C79.2694 14.5106 78.1051 15.0459 76.7064 15.0459C75.6905 15.0459 74.8036 14.7451 74.0457 14.1434C73.2877 13.5417 72.7407 12.7251 72.4047 11.6937V19.0701H70.1777V4.00468H72.4047V7.14201C72.7446 6.11056 73.2916 5.29399 74.0457 4.69231C74.7997 4.09454 75.6866 3.7937 76.7064 3.7937ZM75.964 12.9947C76.8978 12.9947 77.6831 12.6509 78.3278 11.9672C78.9724 11.2834 79.2928 10.4356 79.2928 9.43543C79.2928 8.41961 78.9724 7.56788 78.3278 6.88024C77.6831 6.19651 76.8978 5.8527 75.964 5.8527C74.9326 5.8527 74.0808 6.19261 73.4088 6.86852C72.7368 7.54834 72.4008 8.40007 72.4008 9.43543C72.4008 10.4513 72.7368 11.2991 73.4088 11.9789C74.0808 12.6548 74.9326 12.9947 75.964 12.9947Z" fill="black"/>
<path d="M88.4512 3.7937C89.7522 3.7937 90.811 4.13361 91.6315 4.80952C92.452 5.48935 92.8622 6.46219 92.8622 7.73588V14.8388H90.6352V11.9555C89.971 14.0184 88.6348 15.0498 86.6305 15.0498C85.6967 15.0498 84.9192 14.7724 84.298 14.2137C83.6768 13.655 83.3643 12.9244 83.3643 12.018C83.3643 10.9592 83.7393 10.1621 84.4895 9.63469C85.2396 9.10333 86.1929 8.77514 87.3494 8.65012L89.4475 8.43914C90.2406 8.36881 90.6352 8.01718 90.6352 7.38034C90.6352 6.8568 90.432 6.43875 90.0296 6.1301C89.6272 5.81753 89.0998 5.66516 88.4512 5.66516C87.787 5.66516 87.2244 5.83316 86.7673 6.17307C86.3062 6.51298 86.0132 7.00527 85.8882 7.65774L83.6846 7.12638C83.8839 6.11056 84.4113 5.30181 85.2748 4.70013C86.1304 4.09454 87.1931 3.7937 88.4512 3.7937ZM87.3455 13.2487C88.2637 13.2487 89.0411 12.94 89.678 12.3266C90.3148 11.7132 90.6313 10.9943 90.6313 10.1739V9.57999C90.4633 9.86129 90.0531 10.041 89.4006 10.1113L87.3455 10.3653C86.8063 10.4356 86.3805 10.5958 86.064 10.842C85.7475 11.0881 85.5873 11.4241 85.5873 11.85C85.5873 12.2758 85.7475 12.6118 86.064 12.8658C86.3844 13.1197 86.8102 13.2487 87.3455 13.2487Z" fill="black"/>
<path d="M102.356 9.36897C103.247 9.48227 103.934 9.7753 104.423 10.248C104.911 10.7208 105.153 11.3264 105.153 12.0609C105.153 12.8814 104.821 13.5495 104.157 14.0652C103.493 14.5809 102.637 14.8388 101.59 14.8388H95.5693V4.00464H101.102C102.149 4.00464 103 4.26641 103.665 4.78995C104.329 5.31349 104.661 5.98549 104.661 6.80206C104.661 7.45453 104.458 8.00151 104.055 8.44691C103.657 8.89231 103.09 9.20097 102.356 9.36897ZM100.977 5.87219H97.6908V8.50161H100.977C101.414 8.50161 101.774 8.37268 102.059 8.11872C102.34 7.86477 102.481 7.5483 102.481 7.16541C102.481 6.79815 102.34 6.4895 102.059 6.24336C101.774 5.99722 101.414 5.87219 100.977 5.87219ZM97.6908 12.9751H101.485C101.922 12.9751 102.278 12.8501 102.555 12.604C102.832 12.3578 102.969 12.0336 102.969 11.6389C102.969 11.2717 102.832 10.963 102.555 10.7169C102.278 10.4707 101.922 10.3457 101.485 10.3457H97.6908V12.9751Z" fill="black"/>
<path d="M108.564 13.4401C107.462 12.3657 106.911 11.0295 106.911 9.43543C106.911 7.83746 107.462 6.50126 108.564 5.41902C109.666 4.33678 111.029 3.79761 112.654 3.79761C114.28 3.79761 115.643 4.33678 116.745 5.41902C117.847 6.50126 118.398 7.84137 118.398 9.43543C118.398 11.0334 117.847 12.3696 116.745 13.4401C115.643 14.5145 114.28 15.0498 112.654 15.0498C111.033 15.0498 109.669 14.5145 108.564 13.4401ZM110.197 6.88024C109.533 7.56397 109.201 8.4157 109.201 9.43543C109.201 10.4513 109.533 11.2991 110.197 11.9789C110.861 12.6587 111.682 12.9947 112.654 12.9947C113.643 12.9947 114.467 12.6548 115.124 11.9789C115.78 11.303 116.108 10.4513 116.108 9.43543C116.108 8.40398 115.78 7.54834 115.124 6.86852C114.467 6.1887 113.643 5.8527 112.654 5.8527C111.682 5.84879 110.861 6.19261 110.197 6.88024Z" fill="black"/>
<path d="M129.702 14.8388H127.475V4.00464H129.702V8.43519H135.531V4.00464H137.758V14.8349H135.531V10.4082H129.702V14.8388Z" fill="black"/>
<path d="M145.048 3.7937C146.349 3.7937 147.408 4.13361 148.228 4.80952C149.049 5.48935 149.459 6.46219 149.459 7.73588V14.8388H147.232V11.9555C146.568 14.0184 145.231 15.0498 143.227 15.0498C142.293 15.0498 141.516 14.7724 140.895 14.2137C140.273 13.655 139.961 12.9244 139.961 12.018C139.961 10.9592 140.336 10.1621 141.086 9.63469C141.836 9.10333 142.79 8.77514 143.946 8.65012L146.044 8.43914C146.837 8.36881 147.232 8.01718 147.232 7.38034C147.232 6.8568 147.029 6.43875 146.626 6.1301C146.224 5.81753 145.696 5.66516 145.048 5.66516C144.384 5.66516 143.821 5.83316 143.364 6.17307C142.903 6.51298 142.61 7.00527 142.485 7.65774L140.281 7.12638C140.481 6.11056 141.008 5.30181 141.871 4.70013C142.731 4.09454 143.79 3.7937 145.048 3.7937ZM143.946 13.2487C144.864 13.2487 145.642 12.94 146.279 12.3266C146.915 11.7132 147.232 10.9943 147.232 10.1739V9.57999C147.064 9.86129 146.654 10.041 146.001 10.1113L143.946 10.3653C143.407 10.4356 142.981 10.5958 142.665 10.842C142.348 11.0881 142.188 11.4241 142.188 11.85C142.188 12.2758 142.348 12.6118 142.665 12.8658C142.981 13.1197 143.407 13.2487 143.946 13.2487Z" fill="black"/>
<path d="M161.071 14.8388H158.844V4.00464H166.666V5.97768H161.071V14.8388Z" fill="black"/>
<path d="M169.276 13.4401C168.174 12.3657 167.623 11.0295 167.623 9.43543C167.623 7.83746 168.174 6.50126 169.276 5.41902C170.377 4.33678 171.741 3.79761 173.366 3.79761C174.992 3.79761 176.355 4.33678 177.457 5.41902C178.559 6.50126 179.11 7.84137 179.11 9.43543C179.11 11.0334 178.559 12.3696 177.457 13.4401C176.355 14.5145 174.992 15.0498 173.366 15.0498C171.741 15.0498 170.377 14.5145 169.276 13.4401ZM170.909 6.88024C170.245 7.56397 169.913 8.4157 169.913 9.43543C169.913 10.4513 170.245 11.2991 170.909 11.9789C171.573 12.6587 172.394 12.9947 173.366 12.9947C174.355 12.9947 175.179 12.6548 175.836 11.9789C176.492 11.303 176.82 10.4513 176.82 9.43543C176.82 8.40398 176.492 7.54834 175.836 6.86852C175.179 6.1887 174.355 5.8527 173.366 5.8527C172.394 5.84879 171.573 6.19261 170.909 6.88024Z" fill="black"/>
<path d="M188.036 3.7937C189.435 3.7937 190.599 4.33287 191.533 5.41511C192.467 6.49735 192.932 7.83746 192.932 9.43152C192.932 11.0295 192.467 12.3657 191.533 13.4362C190.599 14.5106 189.435 15.0459 188.036 15.0459C187.021 15.0459 186.134 14.7451 185.376 14.1434C184.618 13.5417 184.071 12.7251 183.735 11.6937V19.0701H181.508V4.00468H183.735V7.14201C184.075 6.11056 184.622 5.29399 185.376 4.69231C186.13 4.09454 187.017 3.7937 188.036 3.7937ZM187.294 12.9947C188.228 12.9947 189.013 12.6509 189.658 11.9672C190.302 11.2834 190.623 10.4356 190.623 9.43543C190.623 8.41961 190.302 7.56788 189.658 6.88024C189.013 6.19651 188.228 5.8527 187.294 5.8527C186.263 5.8527 185.411 6.19261 184.739 6.86852C184.067 7.54834 183.731 8.40007 183.731 9.43543C183.731 10.4513 184.067 11.2991 184.739 11.9789C185.411 12.6548 186.263 12.9947 187.294 12.9947Z" fill="black"/>
<path d="M196.452 13.4401C195.351 12.3657 194.8 11.0295 194.8 9.43543C194.8 7.83746 195.351 6.50126 196.452 5.41902C197.554 4.33678 198.918 3.79761 200.543 3.79761C202.168 3.79761 203.532 4.33678 204.634 5.41902C205.736 6.50126 206.286 7.84137 206.286 9.43543C206.286 11.0334 205.736 12.3696 204.634 13.4401C203.532 14.5145 202.168 15.0498 200.543 15.0498C198.918 15.0498 197.554 14.5145 196.452 13.4401ZM198.082 6.88024C197.418 7.56397 197.085 8.4157 197.085 9.43543C197.085 10.4513 197.418 11.2991 198.082 11.9789C198.746 12.6587 199.566 12.9947 200.539 12.9947C201.528 12.9947 202.352 12.6548 203.008 11.9789C203.665 11.303 203.993 10.4513 203.993 9.43543C203.993 8.40398 203.665 7.54834 203.008 6.86852C202.352 6.1887 201.528 5.8527 200.539 5.8527C199.566 5.84879 198.746 6.19261 198.082 6.88024Z" fill="black"/>
<path d="M218.433 4.00464V12.8657H219.918V17.9097H217.796V14.8349H209.298V17.9097H207.2V12.8657H208.364C208.845 12.2992 209.177 11.6858 209.361 11.0216C209.544 10.3574 209.638 9.31036 209.638 7.8843V4.00464H218.433ZM210.717 12.8657H216.206V5.97768H211.756V7.8843C211.756 9.26739 211.678 10.3301 211.521 11.0646C211.365 11.7991 211.099 12.4008 210.717 12.8657Z" fill="black"/>
<path d="M56.3861 36.8119H54.7021V26.1848H58.953C60.0352 26.1848 60.9182 26.5052 61.5941 27.142C62.2739 27.7789 62.6099 28.5837 62.6099 29.5566C62.6099 30.5177 62.27 31.3108 61.5941 31.9398C60.9143 32.5689 60.0352 32.8814 58.953 32.8814H56.3861V36.8119ZM56.3861 27.689V31.3772H58.953C59.5195 31.3772 59.9844 31.2014 60.3439 30.8537C60.7033 30.506 60.883 30.0684 60.883 29.5409C60.883 29.0057 60.7033 28.5603 60.3439 28.2126C59.9844 27.8648 59.5234 27.689 58.953 27.689H56.3861Z" fill="black"/>
<path d="M65.5404 29.0525V31.1037C65.7943 30.1817 66.1889 29.5605 66.732 29.2362C67.2751 28.9119 67.8885 28.8298 68.5761 28.9939V30.5138C67.7361 30.2793 67.0211 30.3536 66.4272 30.7326C65.8334 31.1115 65.5404 31.6781 65.5404 32.4243V36.8119H63.9463V29.0525H65.5404Z" fill="black"/>
<path d="M72.7527 28.9041C73.6825 28.9041 74.4444 29.1463 75.0305 29.6308C75.6165 30.1152 75.9095 30.8146 75.9095 31.7249V36.8118H74.3155V34.7489C73.8388 36.2258 72.8816 36.9642 71.4477 36.9642C70.7796 36.9642 70.2248 36.765 69.7794 36.3625C69.334 35.964 69.1113 35.4405 69.1113 34.7919C69.1113 34.034 69.3809 33.4635 69.9162 33.0846C70.4514 32.7056 71.1352 32.4712 71.9674 32.3774L73.4716 32.225C74.0381 32.1742 74.3233 31.9203 74.3233 31.4671C74.3233 31.092 74.1787 30.795 73.8896 30.5723C73.6005 30.3496 73.2254 30.2403 72.7605 30.2403C72.2838 30.2403 71.8814 30.3614 71.5532 30.6036C71.225 30.8458 71.014 31.2014 70.9242 31.6663L69.3458 31.2873C69.4864 30.5567 69.8654 29.9785 70.4827 29.5487C71.0922 29.115 71.8501 28.9041 72.7527 28.9041ZM71.9634 35.671C72.6198 35.671 73.1785 35.4522 73.6317 35.0107C74.0889 34.5692 74.3155 34.0574 74.3155 33.4713V33.0455C74.1944 33.2487 73.9013 33.3737 73.4364 33.4245L71.9634 33.6081C71.5806 33.6589 71.2719 33.7722 71.0453 33.948C70.8187 34.1238 70.7054 34.3661 70.7054 34.6708C70.7054 34.9755 70.8187 35.2178 71.0453 35.4014C71.2719 35.5811 71.5767 35.671 71.9634 35.671Z" fill="black"/>
<path d="M80.8436 36.3275L83.2269 29.0565H84.8522L82.1329 36.8119H79.4292L76.71 29.0565H78.4408L80.8436 36.3275Z" fill="black"/>
<path d="M86.384 35.8077C85.5948 35.0381 85.2002 34.0808 85.2002 32.94C85.2002 31.7952 85.5948 30.838 86.384 30.0644C87.1732 29.2908 88.15 28.9041 89.3143 28.9041C90.4786 28.9041 91.4553 29.2908 92.2445 30.0644C93.0338 30.838 93.4284 31.7991 93.4284 32.94C93.4284 34.0847 93.0338 35.042 92.2445 35.8077C91.4553 36.5774 90.4786 36.9603 89.3143 36.9603C88.15 36.9642 87.1732 36.5774 86.384 35.8077ZM87.5522 31.1115C87.0756 31.6038 86.8372 32.2133 86.8372 32.94C86.8372 33.6667 87.0756 34.2762 87.5522 34.7607C88.0289 35.2451 88.6149 35.4874 89.3143 35.4874C90.0214 35.4874 90.6114 35.2451 91.0842 34.7607C91.553 34.2762 91.7913 33.6667 91.7913 32.94C91.7913 32.2016 91.5569 31.5882 91.0842 31.1037C90.6153 30.6192 90.0254 30.3731 89.3143 30.3731C88.6149 30.3731 88.0289 30.6192 87.5522 31.1115Z" fill="black"/>
<path d="M104.298 28.9041C105.177 28.9041 105.896 29.2127 106.454 29.83C107.009 30.4473 107.29 31.2326 107.29 32.182V36.8118H105.696V32.4243C105.696 31.8265 105.505 31.3342 105.118 30.9435C104.735 30.5528 104.259 30.3575 103.692 30.3575C103.055 30.3575 102.532 30.5528 102.129 30.9435C101.723 31.3342 101.524 31.8265 101.524 32.4243V36.8118H99.9297V29.0525H101.524V31.0568C101.735 30.3887 102.086 29.8613 102.579 29.4784C103.067 29.0955 103.641 28.9041 104.298 28.9041Z" fill="black"/>
<path d="M112.436 28.9041C113.366 28.9041 114.128 29.1463 114.714 29.6308C115.3 30.1152 115.593 30.8146 115.593 31.7249V36.8118H113.999V34.7489C113.522 36.2258 112.565 36.9642 111.131 36.9642C110.463 36.9642 109.908 36.765 109.463 36.3625C109.018 35.964 108.795 35.4405 108.795 34.7919C108.795 34.034 109.065 33.4635 109.6 33.0846C110.135 32.7056 110.819 32.4712 111.651 32.3774L113.155 32.225C113.722 32.1742 114.007 31.9203 114.007 31.4671C114.007 31.092 113.862 30.795 113.573 30.5723C113.284 30.3496 112.909 30.2403 112.444 30.2403C111.967 30.2403 111.565 30.3614 111.237 30.6036C110.909 30.8458 110.698 31.2014 110.608 31.6663L109.029 31.2873C109.17 30.5567 109.549 29.9785 110.166 29.5487C110.776 29.115 111.534 28.9041 112.436 28.9041ZM111.647 35.671C112.303 35.671 112.862 35.4522 113.315 35.0107C113.772 34.5692 113.999 34.0574 113.999 33.4713V33.0455C113.878 33.2487 113.585 33.3737 113.12 33.4245L111.647 33.6081C111.264 33.6589 110.956 33.7722 110.729 33.948C110.502 34.1238 110.389 34.3661 110.389 34.6708C110.389 34.9755 110.502 35.2178 110.729 35.4014C110.956 35.5811 111.26 35.671 111.647 35.671Z" fill="black"/>
<path d="M128.603 31.2561V29.0564H130.197V35.9797C130.197 37.1244 129.802 38.0777 129.013 38.8474C128.224 39.6171 127.247 40 126.083 40C125.262 40 124.532 39.8046 123.891 39.41C123.246 39.0154 122.766 38.484 122.441 37.8159L123.883 37.101C124.094 37.5464 124.391 37.898 124.77 38.1559C125.149 38.4137 125.587 38.5427 126.083 38.5427C126.79 38.5427 127.388 38.2965 127.872 37.8081C128.357 37.3158 128.599 36.7064 128.599 35.9797V34.4598C128.345 35.167 127.95 35.7335 127.407 36.1594C126.864 36.5852 126.235 36.7962 125.516 36.7962C124.516 36.7962 123.68 36.4211 123.012 35.6671C122.344 34.913 122.012 33.9754 122.012 32.8501C122.012 31.7249 122.344 30.7872 123.012 30.0332C123.68 29.2791 124.516 28.9041 125.516 28.9041C126.235 28.9041 126.868 29.115 127.415 29.5409C127.962 29.9629 128.357 30.5372 128.603 31.2561ZM126.095 35.3389C126.813 35.3389 127.411 35.1006 127.884 34.6239C128.361 34.1473 128.599 33.5573 128.599 32.8462C128.599 32.1391 128.361 31.5491 127.884 31.0764C127.407 30.6075 126.81 30.3692 126.095 30.3692C125.407 30.3692 124.829 30.6075 124.356 31.0842C123.887 31.5608 123.649 32.1469 123.649 32.8462C123.649 33.5534 123.883 34.1473 124.356 34.6239C124.829 35.1006 125.407 35.3389 126.095 35.3389Z" fill="black"/>
<path d="M133.096 35.8077C132.307 35.0381 131.912 34.0808 131.912 32.94C131.912 31.7952 132.307 30.838 133.096 30.0644C133.885 29.2908 134.862 28.9041 136.026 28.9041C137.19 28.9041 138.167 29.2908 138.956 30.0644C139.746 30.838 140.14 31.7991 140.14 32.94C140.14 34.0847 139.746 35.042 138.956 35.8077C138.167 36.5774 137.19 36.9603 136.026 36.9603C134.862 36.9642 133.885 36.5774 133.096 35.8077ZM134.264 31.1115C133.787 31.6038 133.549 32.2133 133.549 32.94C133.549 33.6667 133.787 34.2762 134.264 34.7607C134.741 35.2451 135.327 35.4874 136.026 35.4874C136.733 35.4874 137.323 35.2451 137.796 34.7607C138.265 34.2762 138.503 33.6667 138.503 32.94C138.503 32.2016 138.269 31.5882 137.796 31.1037C137.327 30.6192 136.737 30.3731 136.026 30.3731C135.327 30.3731 134.741 30.6192 134.264 31.1115Z" fill="black"/>
<path d="M143.45 29.0525V31.1037C143.703 30.1817 144.098 29.5605 144.641 29.2362C145.184 28.9119 145.798 28.8298 146.485 28.9939V30.5138C145.645 30.2793 144.93 30.3536 144.336 30.7326C143.743 31.1115 143.45 31.6781 143.45 32.4243V36.8119H141.855V29.0525H143.45Z" fill="black"/>
<path d="M148.122 35.8077C147.333 35.0381 146.938 34.0808 146.938 32.94C146.938 31.7952 147.333 30.838 148.122 30.0644C148.912 29.2908 149.888 28.9041 151.053 28.9041C152.217 28.9041 153.194 29.2908 153.983 30.0644C154.772 30.838 155.167 31.7991 155.167 32.94C155.167 34.0847 154.772 35.042 153.983 35.8077C153.194 36.5774 152.217 36.9603 151.053 36.9603C149.888 36.9642 148.912 36.5774 148.122 35.8077ZM149.29 31.1115C148.814 31.6038 148.576 32.2133 148.576 32.94C148.576 33.6667 148.814 34.2762 149.29 34.7607C149.767 35.2451 150.353 35.4874 151.053 35.4874C151.76 35.4874 152.35 35.2451 152.822 34.7607C153.291 34.2762 153.53 33.6667 153.53 32.94C153.53 32.2016 153.295 31.5882 152.822 31.1037C152.354 30.6192 151.764 30.3731 151.053 30.3731C150.353 30.3731 149.767 30.6192 149.29 31.1115Z" fill="black"/>
<path d="M163.09 31.2991V25.5792H164.684V36.8119H163.09V34.5654C162.848 35.3038 162.453 35.8898 161.914 36.3196C161.371 36.7494 160.738 36.9643 160.008 36.9643C159.007 36.9643 158.171 36.5814 157.503 35.8117C156.835 35.042 156.503 34.0848 156.503 32.9439C156.503 31.7992 156.835 30.842 157.503 30.0684C158.171 29.2948 159.007 28.908 160.008 28.908C160.734 28.908 161.371 29.1229 161.914 29.5527C162.457 29.9785 162.848 30.5607 163.09 31.2991ZM160.543 35.4913C161.281 35.4913 161.891 35.2491 162.371 34.7646C162.852 34.2801 163.094 33.6706 163.094 32.9439C163.094 32.2055 162.852 31.5921 162.371 31.1076C161.891 30.6232 161.281 30.377 160.543 30.377C159.875 30.377 159.308 30.6232 158.843 31.1116C158.378 31.6038 158.144 32.2133 158.144 32.94C158.144 33.6589 158.378 34.2645 158.843 34.7529C159.308 35.2452 159.875 35.4913 160.543 35.4913Z" fill="black"/>
<path d="M18.3161 0.0820312H0V7.1381V36.8783H7.05607V7.1381H25.3721L18.3161 0.0820312Z" fill="#E16848"/>
<path d="M25.3721 7.13806V36.8782H32.4281V14.1941L25.3721 7.13806Z" fill="#1A5F80"/>
</g>
<defs>
<clipPath id="clip0_214_544">
<rect width="219.918" height="40" fill="white"/>
</clipPath>
</defs>
</svg>
