<svg width="40" height="40" viewBox="0 0 40 40" fill="none" xmlns="http://www.w3.org/2000/svg">
<circle cx="20" cy="20" r="20" fill="#F8F9FA"/>
<path d="M26.6569 19.078L29.4663 16.2685C29.7271 16.0077 29.7015 15.5593 29.4092 15.267L27.3183 13.1761C24.6715 10.5293 19.9079 14.2342 17.0829 17.0592C14.2749 19.8672 10.5294 24.6715 13.1762 27.3183L15.267 29.4091C15.5594 29.7015 16.0078 29.7271 16.2686 29.4663L19.078 26.6568C19.3388 26.3961 19.3132 25.9476 19.0209 25.6553L16.93 23.5644C16.93 23.5644 16.8995 22.5895 19.7179 19.7178C22.5363 16.8462 23.5645 16.93 23.5645 16.93L25.6553 19.0208C25.9477 19.3132 26.3961 19.3388 26.6569 19.078Z" stroke="#E16848" stroke-linecap="round" stroke-linejoin="round"/>
</svg>
