<svg width="25" height="25" viewBox="0 0 25 25" fill="none" xmlns="http://www.w3.org/2000/svg">
<circle cx="12.5" cy="12.5" r="12.5" fill="white"/>
<path d="M16.985 12.1569L18.7752 10.3667C18.9414 10.2005 18.9251 9.91478 18.7388 9.72848L17.4065 8.39617C15.7199 6.7096 12.6845 9.0704 10.8844 10.8705C9.09511 12.6598 6.70841 15.7211 8.39498 17.4077L9.72729 18.74C9.91358 18.9263 10.1993 18.9426 10.3655 18.7764L12.1557 16.9862C12.3219 16.82 12.3056 16.5343 12.1193 16.348L10.787 15.0157C10.787 15.0157 10.7675 14.3945 12.5634 12.5646C14.3593 10.7348 15.0145 10.7882 15.0145 10.7882L16.3468 12.1205C16.5331 12.3068 16.8188 12.3231 16.985 12.1569Z" stroke="#E16848" stroke-linecap="round" stroke-linejoin="round"/>
</svg>
