<svg width="64" height="56" viewBox="0 0 64 56" fill="none" xmlns="http://www.w3.org/2000/svg">
<path d="M52.3485 14.6762H37.4791V11.6676H52.3485V14.6762Z" fill="#1A5F80"/>
<path fill-rule="evenodd" clip-rule="evenodd" d="M11.7264 52.7881V39.7657H5.04067C2.40447 39.7657 0.257812 37.6191 0.257812 34.9829V9.0436C0.257812 4.54777 3.91984 0.885742 8.41567 0.885742H55.6657C60.1615 0.885742 63.8235 4.54777 63.8235 9.0436V34.9829C63.8235 37.6191 61.6769 39.7657 59.0407 39.7657H52.3485V52.7881C52.3485 54.0313 51.3347 55.0451 50.0915 55.0451H13.9835C12.7402 55.0451 11.7264 54.0313 11.7264 52.7881ZM52.3485 25.1285V36.95H61.0078V9.0436C61.0078 6.09883 58.6164 3.70146 55.6657 3.70146H8.41567C5.46962 3.70146 3.07353 6.09755 3.07353 9.0436V36.95H11.7264V25.1285C11.7264 23.8853 12.7402 22.8715 13.9835 22.8715H50.0915C51.3347 22.8715 52.3485 23.8853 52.3485 25.1285ZM14.3306 25.4757V52.4409H49.7489L49.744 25.4757H14.3306Z" fill="#1A5F80"/>
<path d="M26.2548 39.6115L29.1476 43.4686L34.9333 35.7543L42.4548 45.7829H21.6262L26.2548 39.6115Z" fill="#1A5F80"/>
</svg>
