<svg width="87" height="78" viewBox="0 0 87 78" fill="none" xmlns="http://www.w3.org/2000/svg">
<path d="M65.25 78L64.9594 78.4069L65.3337 78.6742L65.6313 78.3235L65.25 78ZM56.5 71.75L56.0931 71.4594L55.8025 71.8663L56.2094 72.1569L56.5 71.75ZM62.5 61.75L62.9402 61.9871L62.9438 61.9804L62.9472 61.9736L62.5 61.75ZM68 47.25L67.5198 47.1106L67.5187 47.1146L68 47.25ZM69.75 32L70.2489 31.9668L70.2019 31.2623L69.553 31.5404L69.75 32ZM66.75 32.75L66.75 32.25L66.7005 32.25L66.6519 32.2597L66.75 32.75ZM53.5 29.25L53.8202 28.8658L53.8098 28.8576L53.5 29.25ZM53.5 5.75001L53.8626 6.09451L53.8716 6.08449L53.5 5.75001ZM65.5 0.75001L65.5 1.25016L65.5119 1.24987L65.5 0.75001ZM81.5 7.75001L81.9051 7.45668L81.8983 7.44782L81.5 7.75001ZM17.25 78L16.9594 78.4069L17.3337 78.6742L17.6312 78.3235L17.25 78ZM8.49999 71.75L8.09312 71.4594L7.8025 71.8663L8.20937 72.1569L8.49999 71.75ZM14.5 61.75L14.9402 61.9871L14.9438 61.9804L14.9472 61.9736L14.5 61.75ZM20 47.25L19.5198 47.1106L19.5187 47.1146L20 47.25ZM21.75 32L22.2489 31.9668L22.2019 31.2623L21.553 31.5404L21.75 32ZM18.75 32.75L18.75 32.25L18.7005 32.25L18.6519 32.2597L18.75 32.75ZM5.49999 29.25L5.82019 28.8658L5.80981 28.8576L5.49999 29.25ZM5.49999 5.75002L5.86262 6.09451L5.87164 6.0845L5.49999 5.75002ZM17.5 0.750014L17.5 1.25016L17.5119 1.24988L17.5 0.750014ZM33.5 7.75001L33.9051 7.45669L33.8983 7.44782L33.5 7.75001ZM36.25 42.25L36.7318 42.3838L36.25 42.25ZM65.5406 77.5931L56.7906 71.3431L56.2094 72.1569L64.9594 78.4069L65.5406 77.5931ZM56.9069 72.0406C58.5914 69.6823 60.6029 66.3278 62.9402 61.9871L62.0598 61.513C59.7304 65.8389 57.7419 69.1511 56.0931 71.4594L56.9069 72.0406ZM62.9472 61.9736C65.1299 57.6083 66.974 52.7449 68.4813 47.3854L67.5187 47.1146C66.026 52.4218 64.2035 57.225 62.0528 61.5264L62.9472 61.9736ZM68.4802 47.3894C69.9952 42.1709 70.5864 37.0291 70.2489 31.9668L69.2511 32.0333C69.5803 36.9709 69.0048 41.9958 67.5198 47.1106L68.4802 47.3894ZM69.553 31.5404C68.4193 32.0264 67.4897 32.25 66.75 32.25L66.75 33.25C67.677 33.25 68.7474 32.9737 69.947 32.4596L69.553 31.5404ZM66.6519 32.2597C65.8502 32.4201 65.0498 32.5 64.25 32.5L64.25 33.5C65.1169 33.5 65.9831 33.4133 66.848 33.2403L66.6519 32.2597ZM64.25 32.5C60.1918 32.5 56.7239 31.2858 53.8201 28.8659L53.1799 29.6341C56.276 32.2142 59.9748 33.5 64.25 33.5L64.25 32.5ZM53.8098 28.8576C50.7917 26.4749 49.25 22.8873 49.25 18L48.25 18C48.25 23.1127 49.8749 27.0252 53.1902 29.6424L53.8098 28.8576ZM49.25 18C49.25 13.2876 50.789 9.32967 53.8625 6.09438L53.1375 5.40564C49.8777 8.83702 48.25 13.0458 48.25 18L49.25 18ZM53.8716 6.08449C56.7653 2.86929 60.6236 1.25001 65.5 1.25001L65.5 0.25001C60.3764 0.250011 56.2347 1.96407 53.1283 5.41552L53.8716 6.08449ZM65.5119 1.24987C72.3797 1.08634 77.548 3.36786 81.1016 8.0522L81.8983 7.44782C78.1186 2.46549 72.6203 0.0803319 65.4881 0.250155L65.5119 1.24987ZM81.095 8.04327C84.5217 12.7753 86.25 18.667 86.25 25.75L87.25 25.75C87.25 18.4997 85.4783 12.3914 81.905 7.45676L81.095 8.04327ZM86.25 25.75C86.25 30.6953 85.4256 36.1496 83.7682 42.1162L84.7318 42.3838C86.4077 36.3504 87.25 30.8047 87.25 25.75L86.25 25.75ZM83.7682 42.1162C82.1116 48.0801 79.7081 54.1318 76.5552 60.2716L77.4448 60.7284C80.6252 54.5349 83.0551 48.42 84.7318 42.3838L83.7682 42.1162ZM76.5552 60.2716C73.4067 66.4029 69.5117 72.2045 64.8687 77.6765L65.6313 78.3235C70.3217 72.7955 74.26 66.9305 77.4448 60.7284L76.5552 60.2716ZM17.5406 77.5932L8.79061 71.3431L8.20937 72.1569L16.9594 78.4069L17.5406 77.5932ZM8.90686 72.0406C10.5914 69.6823 12.6029 66.3278 14.9402 61.9871L14.0598 61.513C11.7304 65.8389 9.74193 69.1511 8.09312 71.4594L8.90686 72.0406ZM14.9472 61.9736C17.1298 57.6083 18.9739 52.7449 20.4813 47.3854L19.5187 47.1146C18.026 52.4218 16.2035 57.225 14.0528 61.5264L14.9472 61.9736ZM20.4802 47.3894C21.9952 42.1709 22.5864 37.0291 22.2489 31.9668L21.2511 32.0333C21.5803 36.9709 21.0048 41.9958 19.5198 47.1106L20.4802 47.3894ZM21.553 31.5404C20.4192 32.0264 19.4897 32.25 18.75 32.25L18.75 33.25C19.677 33.25 20.7474 32.9737 21.9469 32.4596L21.553 31.5404ZM18.6519 32.2597C17.8502 32.4201 17.0498 32.5 16.25 32.5L16.25 33.5C17.1169 33.5 17.9831 33.4133 18.848 33.2403L18.6519 32.2597ZM16.25 32.5C12.1918 32.5 8.72394 31.2858 5.82009 28.8659L5.1799 29.6341C8.27604 32.2142 11.9748 33.5 16.25 33.5L16.25 32.5ZM5.80981 28.8576C2.79172 26.4749 1.24999 22.8873 1.24999 18L0.249994 18C0.249994 23.1127 1.87493 27.0252 5.19017 29.6424L5.80981 28.8576ZM1.24999 18C1.24999 13.2876 2.78897 9.32967 5.86249 6.09438L5.13749 5.40564C1.87767 8.83702 0.249993 13.0458 0.249994 18L1.24999 18ZM5.87164 6.0845C8.76532 2.86929 12.6236 1.25001 17.5 1.25001L17.5 0.250014C12.3764 0.250015 8.23466 1.96407 5.12834 5.41553L5.87164 6.0845ZM17.5119 1.24988C24.3797 1.08635 29.548 3.36786 33.1016 8.05221L33.8983 7.44782C30.1186 2.46549 24.6203 0.0803361 17.4881 0.250159L17.5119 1.24988ZM33.095 8.04327C36.5216 12.7753 38.25 18.667 38.25 25.75L39.25 25.75C39.25 18.4997 37.4783 12.3914 33.905 7.45676L33.095 8.04327ZM38.25 25.75C38.25 30.6953 37.4256 36.1496 35.7682 42.1162L36.7318 42.3838C38.4077 36.3504 39.25 30.8047 39.25 25.75L38.25 25.75ZM35.7682 42.1162C34.1116 48.0801 31.7081 54.1318 28.5552 60.2716L29.4448 60.7284C32.6252 54.5349 35.055 48.42 36.7318 42.3838L35.7682 42.1162ZM28.5552 60.2716C25.4067 66.4029 21.5117 72.2045 16.8687 77.6765L17.6312 78.3235C22.3217 72.7955 26.2599 66.9305 29.4448 60.7284L28.5552 60.2716Z" fill="#F8BCA9"/>
</svg>
