<svg width="20" height="20" viewBox="0 0 20 20" fill="none" xmlns="http://www.w3.org/2000/svg">
<path d="M0.877338 19.7404L6.02448 14.5933C7.49597 15.9186 9.4361 16.7332 11.5677 16.7332C16.1447 16.7331 19.8684 13.0094 19.8684 8.43238C19.8684 3.85534 16.1447 0.131579 11.5676 0.131579C6.99059 0.131579 3.26683 3.85534 3.26683 8.43238C3.26683 10.5639 4.08136 12.504 5.40667 13.9756L0.25957 19.1227C0.174256 19.208 0.131578 19.3198 0.131578 19.4316C0.131578 19.5433 0.174256 19.6551 0.25957 19.7405C0.430242 19.9111 0.706706 19.9111 0.877338 19.7404ZM4.14062 8.43238C4.14062 4.33745 7.4723 1.00537 11.5676 1.00537C15.663 1.00537 18.9947 4.33746 18.9947 8.43238C18.9947 12.5273 15.663 15.8594 11.5676 15.8594C7.47226 15.8594 4.14062 12.5273 4.14062 8.43238Z" fill="#E16848"/>
<path fill-rule="evenodd" clip-rule="evenodd" d="M0.25957 19.7405C0.174256 19.6551 0.131578 19.5433 0.131578 19.4316C0.131578 19.3198 0.174256 19.208 0.25957 19.1227L5.40667 13.9756C4.08136 12.504 3.26683 10.5639 3.26683 8.43238C3.26683 3.85534 6.99059 0.131579 11.5676 0.131579C16.1447 0.131579 19.8684 3.85534 19.8684 8.43238C19.8684 13.0094 16.1447 16.7331 11.5677 16.7332C9.4361 16.7332 7.49597 15.9186 6.02448 14.5933L0.877338 19.7404C0.706706 19.9111 0.430242 19.9111 0.25957 19.7405ZM0.970388 19.8335L6.02986 14.774C7.51246 16.0709 9.44667 16.8648 11.5677 16.8648C16.2173 16.8647 20 13.0821 20 8.43238C20 3.78267 16.2173 -1.65346e-07 11.5676 -3.68591e-07C6.91792 -5.71836e-07 3.13525 3.78267 3.13525 8.43238C3.13525 10.5534 3.9291 12.4876 5.22597 13.9702L0.166532 19.0296C0.055564 19.1406 -8.43031e-07 19.2863 -8.49381e-07 19.4316C-8.55732e-07 19.5769 0.0555774 19.7225 0.166509 19.8335C0.388555 20.0555 0.748366 20.0555 0.970388 19.8335C0.970391 19.8335 0.970384 19.8335 0.970388 19.8335ZM11.5676 1.13695C7.54497 1.13695 4.2722 4.41012 4.2722 8.43238C4.2722 12.4546 7.54493 15.7278 11.5676 15.7278C15.5903 15.7278 18.8631 12.4546 18.8631 8.43238C18.8631 4.41012 15.5903 1.13695 11.5676 1.13695ZM11.5676 1.00537C7.4723 1.00537 4.14062 4.33745 4.14062 8.43238C4.14062 12.5273 7.47226 15.8594 11.5676 15.8594C15.663 15.8594 18.9947 12.5273 18.9947 8.43238C18.9947 4.33746 15.663 1.00537 11.5676 1.00537Z" fill="#E16848"/>
</svg>
