<svg width="23" height="25" viewBox="0 0 23 25" fill="none" xmlns="http://www.w3.org/2000/svg">
<path d="M18.5944 16.4869C17.2323 16.4869 16.0121 17.1396 15.2459 18.1328L8.35032 14.1317C8.77597 13.0817 8.77597 11.9183 8.35032 10.8683L15.2459 6.8672C16.0121 7.86039 17.2323 8.51305 18.5944 8.51305C20.9496 8.51305 22.8509 6.6118 22.8509 4.25653C22.8509 1.90125 20.9496 0 18.5944 0C16.2391 0 14.3378 1.90125 14.3378 4.25653C14.3378 4.82406 14.4513 5.3916 14.65 5.87401L7.75441 9.90352C6.95986 8.91033 5.76803 8.25766 4.40594 8.25766C2.05066 8.25766 0.149414 10.1589 0.149414 12.5142C0.149414 14.8695 2.05066 16.7707 4.40594 16.7707C5.76803 16.7707 6.98823 16.118 7.75441 15.1249L14.65 19.126C14.4513 19.6084 14.3378 20.1759 14.3378 20.7435C14.3378 23.0988 16.2391 25 18.5944 25C20.9496 25 22.8509 23.0988 22.8509 20.7435C22.8509 18.3882 20.9496 16.4869 18.5944 16.4869ZM18.5944 1.16345C20.3253 1.16345 21.7158 2.55392 21.7158 4.2849C21.7158 6.01589 20.3253 7.40636 18.5944 7.40636C16.8634 7.40636 15.4729 6.01589 15.4729 4.2849C15.4729 2.55392 16.8634 1.16345 18.5944 1.16345ZM4.40594 15.6356C2.67495 15.6356 1.28449 14.2452 1.28449 12.5142C1.28449 10.7832 2.67495 9.39274 4.40594 9.39274C6.13693 9.39274 7.52739 10.7832 7.52739 12.5142C7.52739 14.2452 6.13693 15.6356 4.40594 15.6356ZM18.5944 23.8649C16.8634 23.8649 15.4729 22.4745 15.4729 20.7435C15.4729 19.0125 16.8634 17.622 18.5944 17.622C20.3253 17.622 21.7158 19.0125 21.7158 20.7435C21.7158 22.4745 20.3253 23.8649 18.5944 23.8649Z" fill="#E16848"/>
</svg>
