<svg width="56" height="56" viewBox="0 0 56 56" fill="none" xmlns="http://www.w3.org/2000/svg">
<path d="M17.8251 38.4826C17.8251 39.96 16.6275 41.1576 15.1501 41.1576C13.6727 41.1576 12.4751 39.96 12.4751 38.4826C12.4751 37.0053 13.6727 35.8076 15.1501 35.8076C16.6275 35.8076 17.8251 37.0053 17.8251 38.4826Z" fill="white"/>
<path d="M44.0751 38.4826C44.0751 39.96 42.8775 41.1576 41.4001 41.1576C39.9227 41.1576 38.7251 39.96 38.7251 38.4826C38.7251 37.0053 39.9227 35.8076 41.4001 35.8076C42.8775 35.8076 44.0751 37.0053 44.0751 38.4826Z" fill="white"/>
<path fill-rule="evenodd" clip-rule="evenodd" d="M52.8369 10.7743V18.08L54.3752 18.227C54.6726 18.2554 54.9493 18.3227 55.1686 18.4434C55.3555 18.5464 55.5371 18.7049 55.6728 19.0281C55.7425 19.1996 55.7719 19.3892 55.758 19.5832L55.7536 19.6441V25.3576C55.7536 26.0298 55.2099 26.5743 54.5369 26.5743H52.8369V45.7743C52.8369 47.282 52.0095 48.6033 50.7543 49.3329L49.9086 49.8244V54.5243C49.9086 55.1983 49.366 55.741 48.6919 55.741H45.7753C45.1012 55.741 44.5586 55.1983 44.5586 54.5243V49.9076H11.9919V54.5243C11.9919 55.1983 11.4493 55.741 10.7753 55.741H7.85859C7.18456 55.741 6.64193 55.1983 6.64193 54.5243V49.8175L5.80235 49.3248C4.55722 48.5941 3.73693 47.2748 3.73693 45.7743V26.5743H2.02526C1.35233 26.5743 0.808594 26.0298 0.808594 25.3576V19.5243C0.808594 18.8862 1.29512 18.3602 1.92927 18.3097L1.93084 18.3096L1.97249 18.3072C2.00862 18.3052 2.05908 18.3026 2.1159 18.2999L3.73693 18.2246V10.7743C3.73693 5.279 8.20831 0.807617 13.7036 0.807617H42.8703C48.3655 0.807617 52.8369 5.279 52.8369 10.7743ZM6.17026 47.4743H50.3919V43.6739L50.4085 29.491H6.17026V47.4743ZM6.17026 27.0576H27.0703V11.991H6.17026V27.0576ZM29.5036 27.0576H50.4036V11.991H29.5036V27.0576ZM5.72169 9.55762H50.8522L49.3613 7.00119C48.0651 4.77862 45.6613 3.24095 42.8703 3.24095H13.7036C10.9126 3.24095 8.50877 4.77862 7.21258 7.00119L5.72169 9.55762Z" fill="white"/>
</svg>
