<svg width="16" height="8" viewBox="0 0 16 8" fill="none" xmlns="http://www.w3.org/2000/svg">
<path opacity="0.5" d="M15.8641 3.38525C15.8311 3.35202 15.7933 3.32399 15.7519 3.30211C14.7384 2.24723 13.5202 1.41031 12.172 0.842581C10.8238 0.274852 9.37393 -0.0117343 7.91112 0.000367913C6.4483 0.0124701 5.00335 0.323007 3.66473 0.912964C2.3261 1.50292 1.12197 2.35989 0.126062 3.43139C0.0411526 3.52277 -0.00407443 3.64408 0.000288772 3.76874C0.00465197 3.89341 0.0582498 4.01126 0.14934 4.09648C0.179544 4.12407 0.213054 4.1478 0.249103 4.16714C1.24924 5.21195 2.45134 6.04253 3.78238 6.60843C5.11602 7.17672 6.55103 7.46872 8.0007 7.46681C9.44969 7.46903 10.8841 7.17759 12.2173 6.61009C13.5483 6.04427 14.7504 5.21384 15.7506 4.16922C15.8161 4.13055 15.872 4.07767 15.9143 4.01449C15.9566 3.9513 15.9841 3.87943 15.9949 3.80417C16.0057 3.72891 15.9994 3.6522 15.9765 3.57969C15.9537 3.50718 15.9148 3.44073 15.8629 3.38525H15.8641ZM9.91282 5.65361C9.46518 6.10097 8.87629 6.37928 8.24646 6.44114C7.61664 6.503 6.98485 6.34457 6.45874 5.99285C5.93262 5.64113 5.54472 5.11788 5.36113 4.51224C5.17754 3.9066 5.20962 3.25604 5.45189 2.6714C5.69416 2.08676 6.13164 1.6042 6.6898 1.30593C7.24797 1.00767 7.89227 0.912156 8.51296 1.03566C9.13365 1.15917 9.69231 1.49406 10.0938 1.98328C10.4952 2.47249 10.7147 3.08577 10.7147 3.71862C10.7143 4.44437 10.4259 5.1403 9.91282 5.65361ZM1.14655 3.73567C2.26983 2.63129 3.64497 1.81683 5.15329 1.36255C4.59624 2.03259 4.29474 2.8784 4.30235 3.74972C4.30996 4.62105 4.62619 5.46146 5.19486 6.12167C3.67033 5.66999 2.28015 4.85064 1.14655 3.73567ZM10.7488 6.13954C11.3285 5.47756 11.6515 4.62955 11.6592 3.74961C11.6668 2.86968 11.3585 2.0162 10.7903 1.34426C12.3222 1.79451 13.7191 2.61595 14.8573 3.73567C13.7084 4.86603 12.2959 5.69222 10.7475 6.13954H10.7488Z" fill="black"/>
</svg>
