<svg width="25" height="26" viewBox="0 0 25 26" fill="none" xmlns="http://www.w3.org/2000/svg">
<ellipse cx="12.5" cy="13" rx="12.5" ry="13" fill="white"/>
<path d="M12.5038 17.8825H12.4913C12.4525 17.8825 8.57563 17.875 7.5975 17.6094C7.05964 17.4645 6.6396 17.0442 6.495 16.5063C6.31911 15.514 6.23418 14.5077 6.24125 13.5C6.23671 12.4906 6.32394 11.4829 6.50188 10.4894C6.65044 9.95095 7.06865 9.52872 7.60563 9.375C8.55688 9.125 12.3269 9.125 12.4869 9.125H12.5C12.5394 9.125 16.4263 9.1325 17.3944 9.39813C17.9311 9.54376 18.3503 9.96319 18.4956 10.5C18.6771 11.496 18.7623 12.5071 18.75 13.5194C18.7544 14.5275 18.6669 15.534 18.4888 16.5263C18.3423 17.0635 17.922 17.4829 17.3844 17.6281C16.4344 17.88 12.6638 17.8825 12.5038 17.8825ZM11.2538 11.6281L11.2506 15.3781L14.5081 13.5031L11.2538 11.6281Z" fill="#E16848"/>
</svg>
