<svg width="40" height="40" viewBox="0 0 40 40" fill="none" xmlns="http://www.w3.org/2000/svg">
<circle cx="20" cy="20" r="20" fill="#F8F9FA"/>
<path d="M20.006 28.012H19.986C19.924 28.012 13.721 28 12.156 27.575C11.2954 27.3432 10.6234 26.6707 10.392 25.81C10.1106 24.2224 9.97469 22.6123 9.986 21C9.97873 19.385 10.1183 17.7727 10.403 16.183C10.6407 15.3215 11.3098 14.6459 12.169 14.4C13.691 14 19.723 14 19.979 14H20C20.063 14 26.282 14.012 27.831 14.437C28.6898 14.67 29.3605 15.3411 29.593 16.2C29.8834 17.7935 30.0197 19.4113 30 21.031C30.007 22.644 29.8671 24.2543 29.582 25.842C29.3477 26.7016 28.6752 27.3726 27.815 27.605C26.295 28.008 20.262 28.012 20.006 28.012ZM18.006 18.005L18.001 24.005L23.213 21.005L18.006 18.005Z" fill="#E16848"/>
</svg>
